<?xml version="1.0" encoding="utf-8"?>
<!-- Generator: Adobe Illustrator 15.1.0, SVG Export Plug-In . SVG Version: 6.00 Build 0)  -->
<!DOCTYPE svg PUBLIC "-//W3C//DTD SVG 1.1//EN" "http://www.w3.org/Graphics/SVG/1.1/DTD/svg11.dtd">
<svg version="1.1" id="Layer_1" xmlns="http://www.w3.org/2000/svg" xmlns:xlink="http://www.w3.org/1999/xlink" x="0px" y="0px"
	 width="100px" height="100px" viewBox="0 0 100 100" enable-background="new 0 0 100 100" xml:space="preserve">
<circle fill="#FFFFFF" cx="50" cy="50" r="49.463"/>
<path fill="none" stroke="#FFEC00" stroke-width="0.1338" d="M39.219,40.88c-0.055-0.145-0.071-0.295-0.067-0.426
	C39.194,40.587,39.219,40.73,39.219,40.88z"/>
<path fill="#1D1D1B" d="M50,100C22.43,100,0,77.57,0,50C0,22.429,22.43,0,50,0c27.571,0,50,22.429,50,50C100,77.57,77.57,100,50,100
	z M50,1.074C23.022,1.074,1.074,23.021,1.074,50c0,26.979,21.948,48.926,48.926,48.926c26.979,0,48.926-21.947,48.926-48.926
	C98.926,23.021,76.979,1.074,50,1.074z"/>
<path fill="#1D1D1B" d="M96.77,56.198l-0.043,0.306C93.533,79.693,73.441,97.176,50,97.176c-23.441,0-43.532-17.482-46.727-40.672
	L3.23,56.198h11.742l0.038,0.22c3.081,16.893,17.793,29.15,34.99,29.15c17.191,0,31.908-12.258,34.99-29.15l0.037-0.22H96.77z"/>
<g>
	<path fill="#1D1D1B" d="M96.77,43.801H85.027L84.99,43.58C81.908,26.69,67.191,14.432,50,14.432
		c-17.197,0-31.914,12.258-34.99,29.148l-0.038,0.221H3.23l0.043-0.306C6.468,20.311,26.559,2.824,50,2.824
		c23.441,0,43.533,17.487,46.726,40.671L96.77,43.801z"/>
</g>
<polygon fill="#FFFFFF" points="89.501,35.256 90.305,37.728 92.904,37.728 90.801,39.256 91.604,41.728 89.501,40.2 87.398,41.728 
	88.201,39.256 86.1,37.728 88.699,37.728 "/>
<polygon fill="#FFFFFF" points="89.501,58.274 90.305,60.746 92.904,60.746 90.801,62.274 91.604,64.744 89.501,63.218 
	87.398,64.744 88.201,62.274 86.1,60.746 88.699,60.746 "/>
<g>
	<g>
		<g>
			<g>
				<path fill="#1D1D1B" d="M20.298,52.979l-0.116-0.281l1.72-2.26c0.296-0.399,0.517-0.736,0.662-1.01
					c0.145-0.274,0.218-0.52,0.218-0.739c0-0.2-0.073-0.359-0.218-0.478c-0.145-0.119-0.346-0.179-0.604-0.179
					c-0.245,0-0.474,0.043-0.686,0.13c-0.213,0.086-0.403,0.179-0.571,0.275c-0.103-0.225-0.193-0.454-0.27-0.686
					c-0.077-0.231-0.123-0.47-0.136-0.715c0.219-0.123,0.487-0.229,0.803-0.319c0.315-0.09,0.673-0.135,1.073-0.135
					c0.329,0,0.633,0.039,0.913,0.116c0.28,0.078,0.523,0.195,0.729,0.353c0.206,0.158,0.368,0.356,0.483,0.594
					c0.116,0.239,0.174,0.522,0.174,0.851c0,0.232-0.029,0.451-0.087,0.657c-0.058,0.207-0.132,0.403-0.223,0.589
					c-0.09,0.187-0.192,0.364-0.304,0.532c-0.113,0.167-0.224,0.328-0.333,0.483l-0.551,0.772h1.691
					c0.058,0.271,0.087,0.507,0.087,0.706c0,0.226-0.029,0.474-0.087,0.744H20.298z"/>
				<path fill="#1D1D1B" d="M29.489,46.581c0.432,0,0.806,0.083,1.121,0.251c0.315,0.168,0.577,0.398,0.783,0.691
					c0.206,0.293,0.357,0.64,0.454,1.039c0.097,0.4,0.146,0.831,0.146,1.295c0,0.463-0.052,0.892-0.155,1.285
					c-0.104,0.393-0.258,0.734-0.464,1.023c-0.206,0.291-0.47,0.518-0.792,0.682c-0.323,0.165-0.7,0.246-1.131,0.246
					c-0.432,0-0.806-0.081-1.121-0.246c-0.316-0.164-0.575-0.391-0.778-0.682c-0.203-0.289-0.354-0.631-0.454-1.023
					c-0.1-0.393-0.15-0.822-0.15-1.285c0-0.465,0.052-0.896,0.155-1.295c0.104-0.399,0.258-0.746,0.464-1.039
					c0.206-0.293,0.468-0.523,0.788-0.691C28.673,46.664,29.051,46.581,29.489,46.581z M29.47,48.04c-0.257,0-0.458,0.151-0.6,0.454
					c-0.142,0.303-0.212,0.757-0.212,1.363c0,0.599,0.072,1.049,0.218,1.353c0.145,0.303,0.343,0.454,0.594,0.454
					c0.245,0,0.438-0.151,0.58-0.454c0.142-0.303,0.213-0.754,0.213-1.353c0-0.606-0.071-1.06-0.213-1.363
					C29.908,48.191,29.715,48.04,29.47,48.04z"/>
			</g>
		</g>
		<g>
			<g>
				<path fill="#1D1D1B" d="M68.239,46.581c0.432,0,0.806,0.083,1.121,0.251c0.315,0.168,0.577,0.398,0.782,0.691
					c0.207,0.293,0.357,0.64,0.455,1.039c0.097,0.4,0.145,0.831,0.145,1.295c0,0.463-0.052,0.892-0.154,1.285
					c-0.104,0.393-0.258,0.734-0.464,1.023c-0.206,0.291-0.471,0.518-0.792,0.682c-0.323,0.165-0.699,0.246-1.131,0.246
					s-0.806-0.081-1.121-0.246c-0.316-0.164-0.576-0.391-0.779-0.682c-0.202-0.289-0.354-0.631-0.453-1.023
					c-0.101-0.393-0.15-0.822-0.15-1.285c0-0.465,0.053-0.896,0.154-1.295c0.104-0.399,0.259-0.746,0.465-1.039
					c0.206-0.293,0.469-0.523,0.787-0.691C67.424,46.664,67.801,46.581,68.239,46.581z M68.221,48.04
					c-0.258,0-0.458,0.151-0.6,0.454c-0.143,0.303-0.213,0.757-0.213,1.363c0,0.599,0.072,1.049,0.218,1.353
					c0.146,0.303,0.343,0.454,0.595,0.454c0.244,0,0.438-0.151,0.579-0.454c0.142-0.303,0.213-0.754,0.213-1.353
					c0-0.606-0.071-1.06-0.213-1.363C68.658,48.191,68.465,48.04,68.221,48.04z"/>
				<path fill="#1D1D1B" d="M78.059,50.939c0.059,0.251,0.087,0.49,0.087,0.715c0,0.226-0.028,0.464-0.087,0.715h-0.512v1.141
					c-0.137,0.032-0.27,0.053-0.402,0.063c-0.131,0.01-0.258,0.016-0.381,0.016c-0.129,0-0.26-0.006-0.392-0.016
					s-0.269-0.03-0.411-0.063v-1.141h-3.072l-0.165-0.289l2.601-5.567c0.25,0.032,0.497,0.088,0.738,0.168
					c0.242,0.081,0.476,0.208,0.701,0.382l-1.759,3.876h0.956v-1.082c0.143-0.033,0.279-0.054,0.411-0.063s0.263-0.014,0.392-0.014
					c0.123,0,0.25,0.004,0.381,0.014c0.133,0.01,0.266,0.031,0.402,0.063v1.082H78.059z"/>
			</g>
		</g>
	</g>
</g>
<g>
	<path fill="#FFFFFF" d="M26.061,21.222c-0.36,0.301-0.752,0.557-1.177,0.767c-0.425,0.209-0.863,0.374-1.314,0.491
		c-0.009,0.007-0.04,0.018-0.093,0.03c-0.056,0.008-0.088,0.007-0.096-0.002c-0.004-0.004-0.011-0.03-0.019-0.079
		c-0.009-0.048-0.02-0.108-0.033-0.18s-0.027-0.155-0.043-0.248c-0.016-0.094-0.032-0.188-0.05-0.285
		c-0.03-0.195-0.06-0.38-0.088-0.555c-0.029-0.174-0.05-0.299-0.066-0.374c0.08-0.027,0.161-0.047,0.243-0.061
		c0.355-0.083,0.686-0.195,0.994-0.339c0.309-0.143,0.603-0.333,0.884-0.568c0.079-0.066,0.16-0.14,0.244-0.222
		c0.083-0.083,0.151-0.168,0.202-0.259c0.05-0.089,0.075-0.184,0.075-0.283c-0.001-0.099-0.046-0.202-0.136-0.31
		c-0.043-0.051-0.095-0.085-0.156-0.102c-0.061-0.017-0.125-0.023-0.192-0.018c-0.067,0.004-0.133,0.014-0.2,0.029
		c-0.065,0.015-0.125,0.034-0.178,0.054c-0.129,0.044-0.251,0.099-0.369,0.165c-0.117,0.067-0.236,0.13-0.357,0.192
		c-0.161,0.08-0.318,0.16-0.47,0.24c-0.153,0.08-0.305,0.152-0.456,0.215c-0.156,0.067-0.309,0.125-0.459,0.176
		c-0.15,0.051-0.299,0.086-0.447,0.106c-0.3,0.045-0.594,0.015-0.882-0.09c-0.288-0.104-0.573-0.325-0.854-0.662
		c-0.098-0.117-0.184-0.245-0.259-0.386c-0.074-0.14-0.131-0.285-0.17-0.436c-0.079-0.3-0.096-0.587-0.052-0.863
		c0.044-0.275,0.131-0.535,0.261-0.778c0.129-0.244,0.289-0.473,0.478-0.687c0.189-0.214,0.393-0.413,0.609-0.594
		c0.355-0.297,0.743-0.548,1.161-0.751c0.419-0.203,0.867-0.338,1.346-0.404c0.05,0.294,0.1,0.581,0.15,0.861
		c0.05,0.281,0.102,0.565,0.156,0.854c-0.377,0.094-0.726,0.204-1.048,0.33c-0.322,0.127-0.628,0.312-0.918,0.556
		c-0.069,0.058-0.139,0.122-0.209,0.193s-0.126,0.147-0.167,0.229c-0.041,0.082-0.06,0.167-0.057,0.255s0.042,0.177,0.116,0.265
		c0.055,0.065,0.116,0.11,0.183,0.133c0.075,0.024,0.172,0.02,0.291-0.012s0.253-0.084,0.405-0.156
		c0.152-0.072,0.315-0.154,0.488-0.248c0.173-0.094,0.357-0.187,0.554-0.28c0.192-0.089,0.39-0.174,0.594-0.254
		c0.204-0.08,0.408-0.14,0.613-0.181c0.206-0.041,0.408-0.056,0.606-0.044c0.199,0.012,0.391,0.063,0.576,0.153
		c0.141,0.065,0.271,0.151,0.393,0.259c0.123,0.108,0.234,0.223,0.335,0.344c0.296,0.354,0.469,0.705,0.517,1.053
		c0.048,0.349,0.012,0.686-0.107,1.011c-0.119,0.327-0.302,0.638-0.547,0.935C26.62,20.708,26.352,20.979,26.061,21.222z"/>
	<path fill="#FFFFFF" d="M35.5,12.207c0.139,0.291,0.223,0.588,0.251,0.892c0.028,0.303,0.007,0.6-0.064,0.891
		c-0.071,0.291-0.187,0.567-0.348,0.83c-0.162,0.263-0.358,0.5-0.59,0.712c-0.101,0.096-0.208,0.185-0.323,0.266
		c-0.115,0.082-0.234,0.152-0.359,0.212c-0.125,0.06-0.253,0.108-0.386,0.145c-0.133,0.036-0.268,0.064-0.406,0.083
		c-0.311,0.048-0.62,0.052-0.925,0.013c-0.305-0.039-0.594-0.122-0.864-0.249c-0.271-0.126-0.516-0.296-0.734-0.509
		c-0.219-0.212-0.398-0.464-0.537-0.755l-1.939-4.05l1.759-0.842l1.888,3.943c0.058,0.121,0.135,0.22,0.233,0.298
		s0.205,0.135,0.322,0.17c0.117,0.035,0.238,0.048,0.363,0.038c0.126-0.009,0.246-0.041,0.36-0.096
		c0.119-0.057,0.222-0.132,0.308-0.224c0.086-0.091,0.152-0.194,0.198-0.307c0.046-0.113,0.069-0.232,0.069-0.357
		s-0.028-0.248-0.086-0.369l-1.888-3.943l1.759-0.842L35.5,12.207z"/>
	<path fill="#FFFFFF" d="M44.092,12.608l-3.899,0.756l-1.348-6.954l3.599-0.697c0.13-0.025,0.268-0.035,0.413-0.029
		c0.145,0.006,0.29,0.027,0.435,0.064c0.145,0.037,0.283,0.086,0.415,0.147c0.131,0.062,0.248,0.135,0.35,0.221
		c0.183,0.15,0.335,0.329,0.458,0.534c0.123,0.206,0.207,0.425,0.251,0.659c0.052,0.269,0.049,0.537-0.009,0.806
		c-0.058,0.269-0.17,0.515-0.335,0.739c0.146,0.059,0.286,0.137,0.418,0.235c0.132,0.098,0.25,0.212,0.355,0.34
		c0.104,0.128,0.194,0.268,0.27,0.417c0.075,0.149,0.126,0.299,0.156,0.449c0.051,0.263,0.05,0.521-0.002,0.776
		c-0.051,0.255-0.147,0.487-0.288,0.697c-0.14,0.21-0.315,0.39-0.525,0.539C44.596,12.457,44.358,12.557,44.092,12.608z
		 M42.156,7.22l-1.232,0.238l0.275,1.416l1.231-0.239c0.189-0.037,0.34-0.139,0.452-0.306c0.112-0.167,0.149-0.347,0.112-0.538
		c-0.037-0.191-0.139-0.343-0.305-0.457C42.522,7.221,42.345,7.183,42.156,7.22z M42.737,9.887l-1.294,0.25l0.273,1.407l1.294-0.251
		c0.194-0.038,0.347-0.138,0.456-0.302c0.109-0.164,0.145-0.344,0.106-0.542c-0.037-0.191-0.137-0.342-0.299-0.453
		C43.11,9.886,42.932,9.849,42.737,9.887z"/>
	<path fill="#FFFFFF" d="M59.822,13.463l-0.127-1.034l-2.1-0.497L57.02,12.8l-1.924-0.455l4.151-6.296l1.607,0.38l0.892,7.489
		L59.822,13.463z M59.461,8.754l-0.976,1.691l1.081,0.256L59.461,8.754z"/>
	<path fill="#FFFFFF" d="M68.895,17.355l-0.004-2.507l-1.035-0.573l-1.055,1.92l-1.688-0.937l3.434-6.195l3.071,1.702
		c0.147,0.082,0.281,0.193,0.404,0.333c0.121,0.141,0.227,0.297,0.318,0.469c0.09,0.172,0.163,0.35,0.219,0.534
		c0.057,0.185,0.094,0.361,0.109,0.53c0.02,0.213,0.001,0.437-0.058,0.672s-0.14,0.447-0.243,0.633
		c-0.17,0.309-0.4,0.557-0.69,0.744s-0.61,0.301-0.964,0.342l0.021,3.351L68.895,17.355z M70.37,11.88l-0.955-0.53l-0.739,1.333
		l0.955,0.53c0.096,0.052,0.193,0.085,0.297,0.097c0.104,0.013,0.203,0.006,0.301-0.02c0.097-0.026,0.186-0.069,0.266-0.127
		c0.082-0.059,0.148-0.136,0.201-0.231s0.082-0.193,0.09-0.292c0.008-0.1-0.004-0.197-0.033-0.293
		c-0.029-0.096-0.077-0.185-0.142-0.265C70.545,12,70.465,11.933,70.37,11.88z"/>
	<path fill="#FFFFFF" d="M80.97,20.146l-1.413-1.305l-3.615,3.916l-1.4-1.292l3.617-3.917l-1.414-1.304l-0.006-0.18l1.104-1.193
		l4.41,4.073l-1.103,1.193L80.97,20.146z"/>
</g>
<g>
	<g>
		<path fill="#FFFFFF" d="M29.566,84.184l-1.582-1.108l-3.058,4.366l-1.568-1.098l3.058-4.366l-1.583-1.108l-0.031-0.178l0.932-1.33
			l4.941,3.46l-0.932,1.331L29.566,84.184z"/>
		<path fill="#FFFFFF" d="M34.05,92.162l0.039-1.042l-2.001-0.831l-0.71,0.763l-1.835-0.762l5.121-5.544l1.533,0.637l-0.312,7.54
			L34.05,92.162z M34.443,87.452l-1.237,1.513l1.031,0.428L34.443,87.452z"/>
		<path fill="#FFFFFF" d="M46.177,89.635l-1.905-0.32l-0.887,5.256l-1.888-0.318l0.887-5.256l-1.905-0.322l-0.104-0.146l0.27-1.603
			l5.948,1.004l-0.271,1.603L46.177,89.635z"/>
		<path fill="#FFFFFF" d="M55.775,89.4l-1.928,0.139l0.385,5.316l-1.91,0.139l-0.383-5.317l-1.927,0.14l-0.136-0.119l-0.117-1.62
			l6.016-0.435l0.117,1.621L55.775,89.4z"/>
		<path fill="#FFFFFF" d="M64.102,93.021c-0.494,0.163-0.987,0.222-1.479,0.179c-0.492-0.044-0.951-0.174-1.379-0.389
			c-0.426-0.215-0.805-0.508-1.133-0.881c-0.33-0.372-0.575-0.805-0.736-1.296c-0.162-0.491-0.221-0.983-0.176-1.479
			c0.045-0.494,0.175-0.955,0.391-1.382c0.217-0.427,0.51-0.804,0.879-1.134s0.801-0.574,1.295-0.737
			c0.488-0.161,0.98-0.218,1.476-0.173c0.495,0.046,0.956,0.176,1.384,0.391c0.428,0.216,0.805,0.51,1.135,0.882
			c0.328,0.372,0.574,0.804,0.735,1.296c0.161,0.491,0.22,0.984,0.176,1.479c-0.044,0.496-0.175,0.955-0.392,1.383
			c-0.217,0.427-0.511,0.803-0.884,1.131C65.02,92.615,64.59,92.859,64.102,93.021z M62.328,87.617
			c-0.254,0.084-0.471,0.211-0.653,0.383s-0.323,0.367-0.423,0.586c-0.101,0.219-0.158,0.455-0.175,0.706
			c-0.017,0.253,0.017,0.502,0.099,0.751c0.08,0.242,0.201,0.462,0.364,0.658s0.351,0.354,0.56,0.469
			c0.211,0.117,0.439,0.191,0.688,0.221c0.249,0.031,0.499,0.004,0.753-0.078c0.252-0.083,0.471-0.211,0.652-0.383
			s0.323-0.367,0.424-0.586c0.1-0.218,0.156-0.455,0.172-0.709c0.015-0.255-0.018-0.504-0.097-0.747
			c-0.082-0.249-0.204-0.47-0.366-0.663s-0.348-0.348-0.559-0.465c-0.21-0.117-0.439-0.189-0.688-0.221
			C62.831,87.509,62.58,87.535,62.328,87.617z"/>
		<path fill="#FFFFFF" d="M75.094,87.678c-0.432,0.289-0.891,0.479-1.377,0.568c-0.485,0.09-0.963,0.088-1.431-0.006
			c-0.47-0.092-0.913-0.274-1.329-0.545c-0.417-0.271-0.769-0.621-1.056-1.051c-0.288-0.43-0.476-0.89-0.565-1.379
			c-0.09-0.488-0.088-0.967,0.006-1.436c0.096-0.469,0.275-0.912,0.543-1.328s0.618-0.769,1.051-1.058
			c0.428-0.284,0.886-0.472,1.375-0.562c0.49-0.088,0.969-0.086,1.438,0.007c0.47,0.094,0.913,0.274,1.33,0.546
			c0.416,0.27,0.769,0.62,1.055,1.051c0.288,0.43,0.477,0.891,0.566,1.379s0.087,0.967-0.007,1.436
			c-0.095,0.469-0.277,0.912-0.549,1.326C75.871,87.043,75.521,87.393,75.094,87.678z M71.938,82.948
			c-0.222,0.147-0.397,0.329-0.526,0.543c-0.13,0.214-0.213,0.44-0.252,0.677c-0.037,0.239-0.03,0.48,0.021,0.728
			c0.053,0.247,0.15,0.479,0.297,0.696c0.142,0.213,0.317,0.393,0.527,0.537c0.209,0.146,0.432,0.246,0.664,0.303
			c0.234,0.057,0.475,0.066,0.723,0.029c0.248-0.038,0.482-0.131,0.703-0.278c0.222-0.147,0.397-0.329,0.527-0.543
			c0.129-0.215,0.213-0.44,0.251-0.679c0.038-0.236,0.03-0.48-0.024-0.729c-0.053-0.249-0.151-0.48-0.293-0.692
			c-0.145-0.219-0.322-0.398-0.529-0.542c-0.209-0.143-0.43-0.241-0.664-0.298c-0.232-0.057-0.474-0.066-0.722-0.028
			C72.395,82.708,72.16,82.801,71.938,82.948z"/>
	</g>
</g>
<polygon fill="#FFFFFF" points="10.499,35.256 9.695,37.728 7.096,37.728 9.199,39.256 8.396,41.728 10.499,40.2 12.602,41.728 
	11.798,39.256 13.901,37.728 11.301,37.728 "/>
<polygon fill="#FFFFFF" points="10.499,58.274 9.695,60.746 7.096,60.746 9.199,62.274 8.396,64.744 10.499,63.218 12.602,64.744 
	11.798,62.274 13.901,60.746 11.301,60.746 "/>
<g>
	<path fill="#1D1D1B" d="M75.991,55.383c-4.622,6.479-9.125,8.852-12.532,10.676c4.989,0.029,6.168,0.918,6.168,0.918
		c-3.314,2.895-5.993,4.496-8.158,5.162l-0.107-0.157c0,0,0.061-0.456,0.267-0.646s1.034-0.645,1.161-1.877
		c-0.232,0.389-0.973,1.258-1.187,1.309c-0.009-0.491,0.032-1.033,0.283-1.48c0.25-0.446,0.792-1.169,0.697-2.09
		c-0.172,0.353-0.464,0.912-0.827,0.921c-0.171-0.182-0.635-0.871-0.118-2.351c-0.13-0.344-0.284-0.835-0.19-1.283
		c-0.154,0.639-0.326,1.025-0.507,1.188c-0.259-0.301-0.544-0.653-0.69-2.117c-0.146-1.465-0.121-1.385-0.473-1.877
		c0.034,0.568,0.061,2.324-0.189,2.258c-0.25-0.07-1.068-0.957-1.204-1.715c-0.138-0.758-0.079-1.645-0.698-2.428
		c0.121,0.551,0.276,1.516,0.045,1.955c-0.439-0.061-2.031-0.852-2.316-3.504c-0.025,0.748-0.07,1.867-0.38,1.592
		c0,0-0.456-0.23-0.821-0.961c-0.365-0.729-0.959-2.863-1.105-3.068V45.436c0,0-0.279-5.082,6.642-5.082h1.274
		c-0.074,0.162-0.113,0.342-0.113,0.532c0,0.713,0.578,1.292,1.291,1.292c0.715,0,1.295-0.579,1.295-1.292
		c0-0.189-0.04-0.37-0.115-0.532h3.152c0.273,0,0.493-1.124,0.493-2.509c0-1.386-0.22-2.509-0.493-2.509h-2.718
		c0.083-0.203,0.129-0.425,0.129-0.659c0-0.961-0.778-1.741-1.743-1.741c-0.961,0-1.742,0.779-1.742,1.741
		c0,0.234,0.047,0.456,0.131,0.659h-8.197v-3.65c0.801-0.245,1.551-0.609,2.227-1.073c0.569,0.224,0.807,0.087,1.135,0.057
		c-0.378-0.106-0.557-0.282-0.641-0.423c0.618-0.494,1.161-1.078,1.614-1.729c0.108,0.269,0.229,0.689,0.22,1.223
		c0.379-0.391,0.623-0.595,0.771-1.297c0.094,0.865,0.014,1.054-0.162,1.636c0.594,0.283,0.676,0.554,0.621,0.716
		c0.461-0.646,1.514-2.552-0.468-4.175c0.311-0.865,0.48-1.796,0.48-2.769c0-4.523-3.667-8.189-8.192-8.189
		c-4.522,0-8.189,3.666-8.189,8.189c0,1.393,0.347,2.704,0.96,3.851c-0.639,0.453-1.584,1.446-1.469,3.305
		c-0.646,0.927-0.948,1.25-1.077,2.674c-0.271,0.697-0.454,1.097-0.303,1.655h-0.51c0.083-0.203,0.129-0.425,0.129-0.659
		c0-0.961-0.782-1.741-1.743-1.741s-1.743,0.779-1.743,1.741c0,0.234,0.045,0.456,0.13,0.659h-2.716
		c-0.274,0-0.495,1.124-0.495,2.509c0,1.387,0.221,2.509,0.495,2.509h3.007c-0.065,0.165-0.103,0.344-0.103,0.532
		c0,0.784,0.638,1.422,1.424,1.422c0.786,0,1.422-0.638,1.422-1.422V40.88c0.111,0.292,0.385,0.565,1.001,0.629
		c0.014,1.077-0.089,1.949,1.128,3c-0.025,0.692-0.307,2.231,1.526,3.219c0.051,0.679,0.166,2.037,1.873,2.601
		c0.306,0.949,0.306,1.436,1.679,2.399c0.281,0.742,0.987,1.934,2.115,2.332c0.434,0.86,0.819,1.666,2.357,2.421
		c0.436,0.707,0.667,1.654,2.245,1.911c0.513,0.731,0.614,1.269,2.383,1.794c0.321,0.821,0.41,1.373,2.115,1.885
		c0.258,0.858,0.373,1.475,1.768,2.051c0.169,0.885,0.078,0.986,0.873,2.064c-0.014,0.768-0.115,1.332,0.437,2.217
		c-0.22,0.938-0.397,1.564-0.089,2.692l0.105,0.239c-6.766,1.498-8.051-6.822-8.176-12.34l-0.606-0.53v13.57
		c0,0,0.04,3.685,6.149,0.233c2.623-0.199,8.033,0.166,16.168-11.721C71.58,66.162,64.342,76.618,50,78.709
		c0-1.456,0-18.079,0-20.955c-0.009-0.007-1.688-1.189-1.718-2.371c-0.761-0.428-0.761-0.428-0.761-0.428l-0.22,0.428
		c0,0,1.709,16.814-6.281,17.125c0.005-0.189-0.092-0.488-0.16-0.609c-0.091-0.166-0.105-0.334-0.03-0.729
		c0.138-1.552-0.015-2.054-0.136-2.296c-0.123-0.244-0.016-0.32,0.167-0.396c0.259-0.242,0.091-0.729,0.091-0.729
		s0.077-0.381,0.077-0.532c0-0.152-0.502-0.335-0.624-0.274c-0.122,0.062,0.03,0.259,0.274,0.335
		c0.243,0.075-0.065,0.197-0.065,0.197s-0.62,0.061-0.225,0.334c0.396,0.273,0.183,0.488,0,0.594
		c-0.653-0.686-1.474-1.125-1.474-1.125l-0.07,0.426c0,0,0.283-0.243,0.875,0.79c0.593,1.035,0.304,1.415,0.168,1.552
		c-0.138,0.137-0.29,0.076-0.563-0.092c-0.228-0.121-1.125-1.277-1.125-1.277c0.395,0.807,1.05,1.916,1.415,2.495
		c0.365,0.577,0,0.729,0,0.729s-0.107,0.076-0.563-0.03c-0.457-0.106-1.263-1.825-1.414-2.327c-0.181,1.006,0.552,2.111,0.942,2.612
		c-2.173-0.657-4.867-2.263-8.206-5.177c0,0,1.179-0.889,6.169-0.918c-3.408-1.824-7.91-4.197-12.534-10.676
		c-0.456,0.484-4.958,7.208,2.404,17.945c0.394-1.674,0.759-3.924,1.703-5.353c2.008,2.706,6.479,9.063,13.931,11.283
		c0,0,7.955,2.253,7.955,5.08c0-2.827,7.955-5.08,7.955-5.08c7.451-2.221,11.923-8.577,13.93-11.283
		c0.943,1.429,1.309,3.679,1.703,5.353C80.95,62.591,76.447,55.867,75.991,55.383z M63.815,36.024h2.386v0.517h-2.386V36.024z
		 M63.815,37.317h2.386v1.035h-2.386V37.317z M63.125,40.885c0,0.509-0.414,0.921-0.922,0.921c-0.51,0-0.922-0.412-0.922-0.921
		c0-0.123,0.023-0.238,0.066-0.345c0.136-0.339,0.468-0.578,0.855-0.578c0.387,0,0.719,0.239,0.855,0.578
		c0.008,0.022,0.016,0.043,0.021,0.064c0.028,0.088,0.045,0.18,0.045,0.276V40.885z M62.203,33.562c0.615,0,1.116,0.499,1.116,1.115
		c0,0.15-0.029,0.292-0.083,0.422c-0.053,0.13-0.132,0.246-0.228,0.346c0.005,0.039,0.012,0.077,0.012,0.118v1.958
		c0,0.452-0.366,0.819-0.817,0.819c-0.453,0-0.819-0.367-0.819-0.819v-1.958c0-0.041,0.006-0.079,0.012-0.118
		c-0.095-0.101-0.175-0.216-0.228-0.346c-0.053-0.13-0.082-0.272-0.082-0.422C61.086,34.061,61.586,33.562,62.203,33.562z
		 M36.185,38.352h-2.386v-1.035h2.386V38.352z M36.185,36.541h-2.386v-0.517h2.386V36.541z M38.717,40.885
		c0,0.509-0.412,0.921-0.921,0.921c-0.509,0-0.923-0.412-0.923-0.921c0-0.123,0.024-0.238,0.066-0.345
		c0.137-0.339,0.469-0.578,0.857-0.578c0.387,0,0.719,0.239,0.855,0.578c0.008,0.022,0.017,0.043,0.023,0.064
		c0.028,0.088,0.043,0.18,0.043,0.276V40.885z M38.83,35.099c-0.053,0.13-0.132,0.246-0.226,0.346
		c0.005,0.039,0.011,0.077,0.011,0.118v1.958c0,0.452-0.367,0.819-0.819,0.819s-0.818-0.367-0.818-0.819v-1.958
		c0-0.041,0.006-0.079,0.011-0.118c-0.095-0.101-0.174-0.216-0.227-0.346c-0.054-0.13-0.083-0.272-0.083-0.422
		c0-0.616,0.5-1.115,1.117-1.115s1.117,0.499,1.117,1.115C38.914,34.826,38.884,34.969,38.83,35.099z M58.252,39.113
		c-0.799-0.008-6.215,0.808-8.048,3.646c0,0,0.267-3.344,7.946-4.13c0.564-0.047,1.004-0.125,1.051,0.109
		C59.248,38.974,59.049,39.123,58.252,39.113z M52.312,29.526v-2.193c0.746-0.175,1.579-1.161,1.886-1.753
		C55.886,29,52.312,29.526,52.312,29.526z M50,26.319c-1.019,0-1.846-0.828-1.846-1.847c0-1.02,0.827-1.846,1.846-1.846
		c1.02,0,1.846,0.826,1.846,1.846C51.846,25.491,51.02,26.319,50,26.319z M51.602,27.669v6.026c0,0.442-0.42,0.801-0.939,0.801
		v-6.508C50.995,27.926,51.309,27.817,51.602,27.669z M49.337,27.989v6.508c-0.518,0-0.938-0.359-0.938-0.801v-6.026
		C48.691,27.817,49.005,27.926,49.337,27.989z M50,21.769c-1.601,0-2.995,0.77-3.721,1.906c0.103-2.153,1.729-3.864,3.721-3.864
		c1.993,0,3.619,1.711,3.721,3.864C52.994,22.538,51.602,21.769,50,21.769z M46.875,17.206c3.946-2.258,8.396,0.647,9.58,2.653
		c1.036,1.754,0.154,1.688-0.789,2.28c-0.942,0.591-1.557-0.197-1.818-0.526c-2.631-4.187-6.49-1.688-6.49-1.688
		c-0.565,0.291-0.812-0.021-1.447-0.92C45.275,18.105,46.262,17.535,46.875,17.206z M43.609,22.27
		c1.556-0.262,1.556,2.104,1.425,3.091c-0.746,0-1.534,0.92-1.534,0.92v0.088C42.93,24.748,42.842,23.564,43.609,22.27z
		 M41.713,33.564c0.385-0.172,1.607-1.114,2.1-1.735c-0.451,0.343-2.1,0.899-2.1,0.899s-0.172-0.728,0.301-1.672
		c0,0,1.329-1.103,2.566-1.548c-0.593,0-0.71-0.197-1.923,0.264c0.02-0.685,0.71-1.118,0.71-1.118
		c0.728-0.2,2.062-0.926,2.794-1.405c-0.281,0.055-1.296,0.14-1.691,0.083c0.114-1.07,1.634-1.465,2.198-1.521
		c-0.084,0.339,0.254,1.184,0.536,1.606c-0.17,0.733-1.016,1.353-1.578,1.606c-0.076,0.316-0.361,0.873-0.611,1.323
		c0.768,0.59,1.644,1.047,2.593,1.337v3.65h-5.266c0.14-0.242,0.408-0.656,0.763-0.957C39.978,35.985,41.351,34.164,41.713,33.564z
		 M39.411,36.024H60.59v0.517H39.411V36.024z M39.411,38.352v-1.035H60.59v1.035h-8.521c-2.399,0.18-2.241,2.287-2.219,4.256
		c-1.516-2.264-4.28-2.513-5.547-2.762c0.521-0.43,1.314-0.656,2.309-0.656c0.997,0,1.496,0.022,2.605-0.25
		c-0.394-0.259-1.141-0.45-1.949-0.588H39.411z M52.845,58.279c-0.157-0.256-0.388-0.572-0.739-0.826
		c-0.146-0.448-0.402-0.971-0.705-1.42c-0.037-0.752-0.229-0.947-0.668-2.5c0.073,1.76-0.037,2.016-0.229,2.5
		c-1.298-0.473-1.687-4.186-1.687-4.186c-0.073,0.521-0.266,1.213-0.473,1.613c-1.578-0.958-1.566-3.363-1.639-4.563
		c-0.219,0.522-0.229,1.214-0.256,2.27c-0.981-0.449-1.188-2.391-1.369-4.842c-0.038,1.674-0.244,1.94-0.606,2.5
		c-1.081-0.327-1.02-4.114-1.02-4.114s-0.364,1.129-0.559,1.603c-0.715-0.279-0.606-2.428-0.496-3.034
		c0.108-0.607,0.193-1.274,0.144-1.723c-0.327,0.28-0.412,0.886-0.459,1.214c-0.049,0.326-0.396,0.4-0.396,0.4
		c-0.767-0.973-0.597-2.05-0.298-2.817h1.411c5.096,0.004,4.45,7.797,4.45,8.85c0.728,0.513,1.159,1.131,1.591,1.887
		c0.702,0.242,1.7,1.646,1.7,1.646s-0.162-4.316-0.162-6.07c0-1.754,0.621-1.511,1.458-0.081l0.054,7.366
		c0,0,0.811,1.671,0.956,1.987C52.99,56.251,52.845,58.279,52.845,58.279z M25.59,67.458c-1.247,0.061-4.229-4.351-1.551-11.011
		c0,0,6.053,7.269,10.616,9.125c-1.855,0.273-2.708,0.426-2.708,0.426s-5.08-3.043-7.209-7.18
		C25.499,62.014,26.837,67.396,25.59,67.458z M41.459,78.378c-2.312-0.948-3.082-1.497-2.697-2.163
		c0.385-0.667,2.045-0.029,3.082,0.282C40.482,77.09,41.459,78.378,41.459,78.378z M26.746,63.352
		c1.824,2.371,8.608,10.371,14.874,9.49c0,0,0.654,2.677,5.416,2.251c0.333-0.03,1.687-0.183,2.433,3.087
		C49.468,78.18,32.342,74.787,26.746,63.352z M50,82.371h-0.104c-2.731-2.342-4.863-2.761-5.253-2.881s-1.441-0.359-2.042-1.021
		c-0.6-0.66,0.121-1.471,1.892-1.23C48.094,77.898,50,79.52,50,79.52V82.371z M74.455,67.458c-1.247-0.062,0.092-5.444,0.852-8.64
		c-2.13,4.137-7.209,7.18-7.209,7.18s-0.852-0.152-2.707-0.426c4.563-1.856,10.615-9.125,10.615-9.125
		C78.684,63.107,75.701,67.519,74.455,67.458z"/>
	<path fill="#1D1D1B" d="M40.845,66.799c-0.177-0.317-0.596-1.131-1.576-0.418c0,0,0.042,0.084,0.587,0
		c-0.084,0.159-0.092,0.268-0.092,0.268S40.375,66.422,40.845,66.799z"/>
	<path fill="#1D1D1B" d="M38.54,65.895c-0.268,0.285-0.158,0.503,0,0.414c-0.017,0.215-0.091,0.843,0.243,0.607
		c0,0-0.319-0.711,0.662-1.021c-0.133-0.117-0.351-0.158-0.544,0C38.943,65.668,38.808,65.609,38.54,65.895z"/>
	<path fill="#1D1D1B" d="M55.275,31.006l-0.152,0.065c0.001,0.002,0.002,0.003,0.004,0.005c1.195,1.881,2.876-0.07,2.876-0.07
		s0,0-0.206-0.131C56.264,32.125,55.275,31.006,55.275,31.006z"/>
</g>
</svg>
