<?xml version="1.0" encoding="utf-8"?>
<!-- Generator: Adobe Illustrator 15.1.0, SVG Export Plug-In . SVG Version: 6.00 Build 0)  -->
<!DOCTYPE svg PUBLIC "-//W3C//DTD SVG 1.1//EN" "http://www.w3.org/Graphics/SVG/1.1/DTD/svg11.dtd">
<svg version="1.1" id="Layer_1" xmlns="http://www.w3.org/2000/svg" xmlns:xlink="http://www.w3.org/1999/xlink" x="0px" y="0px"
	 width="40px" height="50px" viewBox="20.5 25 40 50" enable-background="new 20.5 25 40 50" xml:space="preserve">
<g>
	<path fill="#FFFFFF" d="M59.219,53.919c-3.329,4.717-6.571,6.444-9.025,7.772c3.594,0.021,4.441,0.669,4.441,0.669
		c-2.387,2.106-4.315,3.273-5.875,3.758l-0.077-0.114c0,0,0.043-0.332,0.192-0.47c0.148-0.138,0.744-0.47,0.835-1.366
		c-0.167,0.282-0.7,0.916-0.854,0.952c-0.007-0.357,0.023-0.752,0.204-1.077c0.18-0.325,0.569-0.852,0.502-1.522
		c-0.124,0.258-0.334,0.664-0.596,0.671c-0.123-0.132-0.458-0.634-0.085-1.712c-0.094-0.249-0.205-0.607-0.138-0.934
		c-0.111,0.466-0.235,0.746-0.364,0.865c-0.188-0.22-0.391-0.477-0.497-1.542c-0.105-1.065-0.087-1.009-0.341-1.366
		c0.024,0.413,0.044,1.692-0.136,1.644c-0.18-0.051-0.77-0.696-0.867-1.248c-0.1-0.552-0.058-1.197-0.503-1.768
		c0.086,0.401,0.198,1.104,0.031,1.424c-0.317-0.044-1.463-0.62-1.668-2.552c-0.018,0.546-0.051,1.359-0.273,1.158
		c0,0-0.329-0.167-0.592-0.698s-0.69-2.085-0.796-2.234v-7.552c0,0-0.201-3.7,4.783-3.7h0.917c-0.052,0.118-0.081,0.25-0.081,0.388
		c0,0.519,0.417,0.94,0.931,0.94c0.515,0,0.933-0.422,0.933-0.94c0-0.138-0.03-0.27-0.083-0.388h2.27
		c0.197,0,0.355-0.818,0.355-1.826c0-1.01-0.158-1.827-0.355-1.827H50.45c0.06-0.146,0.094-0.309,0.094-0.479
		c0-0.7-0.563-1.268-1.256-1.268c-0.691,0-1.254,0.567-1.254,1.268c0,0.17,0.033,0.332,0.093,0.479h-5.903v-2.657
		c0.576-0.178,1.116-0.443,1.604-0.781c0.409,0.164,0.58,0.063,0.816,0.042c-0.272-0.077-0.401-0.206-0.462-0.309
		c0.445-0.359,0.837-0.784,1.163-1.259c0.078,0.195,0.165,0.502,0.158,0.89c0.272-0.284,0.448-0.433,0.556-0.944
		c0.067,0.63,0.01,0.768-0.117,1.191c0.429,0.206,0.487,0.403,0.447,0.521c0.333-0.471,1.09-1.858-0.337-3.04
		c0.225-0.63,0.346-1.308,0.346-2.016C46.398,27.669,43.758,25,40.498,25c-3.256,0-5.897,2.669-5.897,5.962
		c0,1.014,0.25,1.969,0.692,2.804c-0.46,0.329-1.141,1.052-1.058,2.406c-0.465,0.675-0.683,0.91-0.775,1.947
		c-0.196,0.508-0.327,0.799-0.218,1.204h-0.368c0.061-0.146,0.093-0.309,0.093-0.479c0-0.7-0.563-1.268-1.255-1.268
		c-0.693,0-1.255,0.567-1.255,1.268c0,0.17,0.032,0.332,0.094,0.479h-1.956c-0.197,0-0.357,0.818-0.357,1.827
		c0,1.01,0.16,1.826,0.357,1.826h2.166c-0.047,0.12-0.074,0.251-0.074,0.388c0,0.571,0.459,1.034,1.026,1.034
		c0.565,0,1.024-0.464,1.024-1.034v-0.005c0.08,0.213,0.277,0.412,0.721,0.459c0.01,0.784-0.063,1.419,0.813,2.184
		c-0.019,0.505-0.222,1.624,1.099,2.344c0.038,0.494,0.12,1.483,1.349,1.894c0.22,0.691,0.22,1.046,1.209,1.746
		c0.203,0.54,0.711,1.407,1.523,1.698c0.313,0.626,0.59,1.213,1.699,1.763c0.313,0.514,0.479,1.203,1.616,1.39
		c0.37,0.532,0.443,0.925,1.717,1.307c0.231,0.598,0.295,0.999,1.523,1.372c0.185,0.625,0.269,1.073,1.272,1.493
		c0.121,0.645,0.056,0.719,0.629,1.503c-0.01,0.56-0.084,0.969,0.314,1.614c-0.158,0.682-0.286,1.138-0.064,1.96l0.076,0.175
		c-4.873,1.09-5.8-4.968-5.889-8.985l-0.437-0.386v9.88c0,0,0.029,2.684,4.429,0.17c1.889-0.146,5.785,0.121,11.644-8.532
		c-1.937,3.36-7.15,10.973-17.48,12.496c0-1.061,0-13.163,0-15.258c-0.007-0.004-1.215-0.864-1.237-1.726
		c-0.548-0.312-0.548-0.312-0.548-0.312l-0.159,0.312c0,0,1.231,12.242-4.524,12.468c0.004-0.138-0.066-0.354-0.114-0.443
		c-0.066-0.121-0.077-0.243-0.022-0.531c0.099-1.13-0.011-1.495-0.099-1.672c-0.088-0.178-0.011-0.233,0.121-0.288
		c0.187-0.178,0.065-0.532,0.065-0.532s0.055-0.277,0.055-0.388s-0.362-0.243-0.449-0.199c-0.087,0.045,0.022,0.188,0.197,0.244
		c0.175,0.055-0.047,0.145-0.047,0.145s-0.446,0.043-0.162,0.242c0.286,0.199,0.131,0.355,0,0.432
		c-0.47-0.498-1.062-0.819-1.062-0.819l-0.051,0.311c0,0,0.204-0.178,0.631,0.575c0.428,0.754,0.219,1.03,0.121,1.129
		c-0.099,0.1-0.208,0.056-0.406-0.066c-0.164-0.088-0.81-0.93-0.81-0.93c0.284,0.587,0.756,1.396,1.019,1.816s0,0.531,0,0.531
		s-0.076,0.056-0.405-0.021c-0.329-0.078-0.909-1.329-1.019-1.694c-0.131,0.731,0.397,1.537,0.678,1.901
		c-1.565-0.479-3.504-1.647-5.91-3.769c0,0,0.849-0.647,4.443-0.668c-2.454-1.328-5.697-3.057-9.027-7.773
		c-0.328,0.354-3.571,5.248,1.731,13.065c0.284-1.219,0.547-2.857,1.226-3.896c1.447,1.969,4.667,6.598,10.034,8.215
		c0,0,5.729,1.64,5.729,3.698c0-2.059,5.729-3.698,5.729-3.698c5.367-1.617,8.587-6.245,10.033-8.215
		c0.68,1.039,0.942,2.678,1.227,3.896C62.79,59.166,59.548,54.272,59.219,53.919z M50.45,39.825h1.718v0.376H50.45V39.825z
		 M50.45,40.766h1.718v0.754H50.45V40.766z M49.952,43.364c0,0.37-0.298,0.67-0.664,0.67c-0.367,0-0.664-0.3-0.664-0.67
		c0-0.09,0.017-0.174,0.048-0.251c0.099-0.247,0.338-0.422,0.616-0.422s0.518,0.175,0.616,0.422
		c0.007,0.016,0.011,0.031,0.016,0.046c0.021,0.064,0.032,0.132,0.032,0.202V43.364L49.952,43.364z M49.289,38.032
		c0.442,0,0.804,0.363,0.804,0.812c0,0.109-0.021,0.213-0.06,0.307c-0.038,0.096-0.095,0.18-0.163,0.253
		c0.003,0.028,0.008,0.056,0.008,0.086v1.425c0,0.329-0.264,0.597-0.589,0.597S48.7,41.243,48.7,40.914v-1.425
		c0-0.03,0.004-0.058,0.008-0.086c-0.068-0.073-0.126-0.157-0.163-0.253c-0.038-0.094-0.06-0.197-0.06-0.307
		C48.484,38.396,48.845,38.032,49.289,38.032z M30.549,41.52h-1.718v-0.754h1.718V41.52z M30.549,40.201h-1.718v-0.376h1.718V40.201
		z M32.374,43.364c0,0.37-0.297,0.67-0.663,0.67c-0.367,0-0.665-0.3-0.665-0.67c0-0.09,0.017-0.174,0.047-0.251
		c0.099-0.247,0.337-0.422,0.617-0.422c0.278,0,0.518,0.175,0.616,0.422c0.006,0.016,0.012,0.031,0.017,0.046
		c0.02,0.064,0.031,0.132,0.031,0.202L32.374,43.364L32.374,43.364z M32.455,39.151c-0.039,0.095-0.095,0.179-0.163,0.253
		c0.003,0.028,0.008,0.055,0.008,0.085v1.426c0,0.329-0.264,0.596-0.589,0.596s-0.589-0.267-0.589-0.596v-1.426
		c0-0.03,0.004-0.057,0.009-0.085c-0.069-0.073-0.125-0.157-0.164-0.253c-0.039-0.094-0.06-0.198-0.06-0.307
		c0-0.448,0.36-0.813,0.804-0.813c0.443,0,0.804,0.364,0.804,0.813C32.515,38.953,32.494,39.057,32.455,39.151z M46.443,42.074
		c-0.575-0.007-4.476,0.588-5.797,2.653c0,0,0.192-2.435,5.724-3.007c0.406-0.034,0.723-0.092,0.757,0.08
		S47.017,42.081,46.443,42.074z M42.164,35.095v-1.597c0.537-0.128,1.138-0.845,1.358-1.276
		C44.739,34.711,42.164,35.095,42.164,35.095z M40.499,32.76c-0.734,0-1.329-0.603-1.329-1.345c0-0.741,0.595-1.344,1.329-1.344
		c0.736,0,1.33,0.602,1.33,1.344C41.829,32.156,41.234,32.76,40.499,32.76z M41.653,33.742v4.388c0,0.322-0.302,0.583-0.678,0.583
		v-4.738C41.216,33.93,41.442,33.85,41.653,33.742z M40.022,33.976v4.737c-0.373,0-0.676-0.261-0.676-0.583v-4.387
		C39.557,33.85,39.783,33.93,40.022,33.976z M40.499,29.447c-1.153,0-2.157,0.56-2.679,1.387c0.073-1.567,1.245-2.813,2.679-2.813
		c1.437,0,2.607,1.245,2.68,2.813C42.656,30.007,41.653,29.447,40.499,29.447z M38.249,26.125c2.843-1.645,6.048,0.471,6.9,1.932
		c0.746,1.276,0.111,1.229-0.568,1.659c-0.679,0.431-1.121-0.144-1.31-0.384c-1.895-3.049-4.674-1.229-4.674-1.229
		c-0.407,0.212-0.584-0.016-1.042-0.67C37.097,26.78,37.808,26.364,38.249,26.125z M35.896,29.812
		c1.121-0.191,1.121,1.532,1.026,2.25c-0.537,0-1.105,0.671-1.105,0.671v0.064C35.407,31.615,35.344,30.754,35.896,29.812z
		 M34.531,38.034c0.277-0.125,1.157-0.812,1.512-1.263c-0.324,0.249-1.512,0.655-1.512,0.655s-0.124-0.53,0.216-1.218
		c0,0,0.957-0.803,1.848-1.127c-0.427,0-0.512-0.145-1.385,0.192c0.014-0.499,0.511-0.814,0.511-0.814
		c0.524-0.146,1.485-0.674,2.012-1.023c-0.203,0.041-0.934,0.103-1.217,0.062c0.082-0.779,1.177-1.066,1.583-1.107
		c-0.061,0.246,0.183,0.861,0.386,1.169c-0.123,0.534-0.732,0.985-1.137,1.17c-0.054,0.229-0.259,0.636-0.439,0.963
		c0.553,0.43,1.184,0.763,1.867,0.974v2.657h-3.792c0.101-0.177,0.293-0.478,0.549-0.697C33.281,39.797,34.27,38.471,34.531,38.034z
		 M32.873,39.825h15.254v0.376H32.873V39.825z M32.873,41.52v-0.754h15.254v0.754H41.99c-1.729,0.132-1.615,1.665-1.6,3.099
		c-1.092-1.647-3.082-1.829-3.995-2.011c0.375-0.313,0.946-0.478,1.663-0.478c0.718,0,1.077,0.016,1.876-0.182
		c-0.284-0.188-0.822-0.327-1.403-0.428L32.873,41.52L32.873,41.52z M42.549,56.027c-0.113-0.186-0.278-0.415-0.532-0.601
		c-0.105-0.326-0.289-0.707-0.507-1.033c-0.027-0.549-0.166-0.689-0.481-1.82c0.053,1.281-0.027,1.467-0.167,1.82
		c-0.935-0.345-1.214-3.048-1.214-3.048c-0.053,0.379-0.192,0.883-0.341,1.174c-1.137-0.697-1.128-2.447-1.18-3.321
		c-0.158,0.38-0.165,0.884-0.185,1.652c-0.707-0.326-0.855-1.74-0.986-3.525c-0.027,1.219-0.175,1.413-0.437,1.82
		c-0.779-0.238-0.735-2.996-0.735-2.996s-0.262,0.823-0.402,1.167c-0.515-0.203-0.436-1.767-0.357-2.209
		c0.077-0.442,0.139-0.927,0.104-1.254c-0.236,0.203-0.297,0.645-0.331,0.884c-0.036,0.238-0.285,0.291-0.285,0.291
		c-0.552-0.708-0.43-1.492-0.215-2.051h1.017c3.669,0.003,3.204,5.677,3.204,6.442c0.524,0.373,0.835,0.824,1.146,1.374
		c0.505,0.177,1.224,1.198,1.224,1.198s-0.117-3.143-0.117-4.42s0.449-1.1,1.05-0.059l0.039,5.362c0,0,0.585,1.218,0.689,1.447
		C42.653,54.552,42.549,56.027,42.549,56.027z M22.919,62.71c-0.897,0.044-3.045-3.167-1.117-8.016c0,0,4.359,5.292,7.646,6.643
		c-1.336,0.199-1.95,0.311-1.95,0.311s-3.658-2.215-5.192-5.227C22.854,58.746,23.817,62.666,22.919,62.71z M34.348,70.66
		c-1.666-0.69-2.22-1.089-1.942-1.574c0.277-0.486,1.473-0.021,2.219,0.205C33.645,69.723,34.348,70.66,34.348,70.66z
		 M23.752,59.721c1.314,1.727,6.199,7.551,10.712,6.908c0,0,0.471,1.949,3.9,1.64c0.24-0.022,1.215-0.134,1.752,2.247
		C40.116,70.517,27.783,68.046,23.752,59.721z M40.499,73.567h-0.074c-1.968-1.704-3.503-2.01-3.784-2.097
		c-0.281-0.088-1.038-0.263-1.47-0.743c-0.432-0.481,0.087-1.071,1.362-0.896c2.595,0.48,3.967,1.66,3.967,1.66L40.499,73.567
		L40.499,73.567z M58.113,62.71c-0.898-0.044,0.065-3.964,0.612-6.289c-1.534,3.012-5.191,5.227-5.191,5.227
		s-0.613-0.111-1.95-0.311c3.287-1.351,7.646-6.643,7.646-6.643C61.158,59.543,59.011,62.754,58.113,62.71z"/>
	<path fill="#FFFFFF" d="M33.906,62.23c-0.127-0.231-0.428-0.823-1.135-0.305c0,0,0.031,0.062,0.423,0
		c-0.061,0.116-0.066,0.195-0.066,0.195S33.568,61.956,33.906,62.23z"/>
	<path fill="#FFFFFF" d="M32.246,61.573c-0.193,0.206-0.114,0.365,0,0.301c-0.013,0.156-0.065,0.613,0.175,0.442
		c0,0-0.229-0.518,0.477-0.743c-0.096-0.086-0.253-0.116-0.393,0C32.536,61.407,32.439,61.364,32.246,61.573z"/>
	<path fill="#FFFFFF" d="M44.3,36.172l-0.11,0.048c0.001,0.001,0.002,0.002,0.003,0.004c0.86,1.369,2.072-0.052,2.072-0.052
		s0,0-0.149-0.095C45.012,36.986,44.3,36.172,44.3,36.172z"/>
</g>
</svg>
